<?xml version="1.0" encoding="iso-8859-1"?>
<!-- Generator: Adobe Illustrator 19.0.0, SVG Export Plug-In . SVG Version: 6.00 Build 0)  -->
<svg xmlns="http://www.w3.org/2000/svg" xmlns:xlink="http://www.w3.org/1999/xlink" version="1.1" id="Capa_1" x="0px" y="0px" viewBox="0 0 512 512" style="enable-background:new 0 0 512 512;" xml:space="preserve">
<rect x="101" y="7.5" style="fill:#F2464F;" width="340" height="497"/>
<rect x="421" y="7.5" style="fill:#DB3747;" width="20" height="497"/>
<rect x="126" y="32.5" style="fill:#71DB9E;" width="290" height="447"/>
<rect x="396.67" y="32.5" style="fill:#62C473;" width="19.333" height="447"/>
<g>
	<path style="fill:#FACB57;" d="M262.122,167.146c0,25.2-11.82,39.53-28.22,44.24v194.07c0,3.59-1.46,6.84-3.81,9.19   c-2.35,2.35-5.6,3.81-9.19,3.81c-7.18,0-13-5.82-13-13v-194.07c-16.39-4.71-28.22-19.04-28.22-44.24c0-31.48,18.46-68,41.22-68   C243.672,99.146,262.122,135.666,262.122,167.146z"/>
	<path style="fill:#FACB57;" d="M362.318,100.366v78.85c0,9.37-3.8,17.85-9.94,23.99c-3.12,3.12-6.85,5.64-10.99,7.36v194.89   c0,3.59-1.45,6.84-3.81,9.19c-2.35,2.35-5.6,3.81-9.19,3.81c-7.18,0-13-5.82-13-13v-194.89c-12.29-5.1-20.93-17.22-20.93-31.35   v-78.85c0-1.89,0.76-3.59,2-4.82c1.24-1.24,2.94-2,4.83-2h54.2C359.258,93.546,362.318,96.596,362.318,100.366z"/>
</g>
<g>
	<path style="fill:#8B97A6;" d="M140.046,111.44H81.954c-6.05,0-10.954-4.904-10.954-10.954v-2.091   c0-6.05,4.904-10.954,10.954-10.954h58.091c6.05,0,10.954,4.904,10.954,10.954v2.091C151,106.536,146.096,111.44,140.046,111.44z"/>
	<path style="fill:#8B97A6;" d="M140.046,174.064H81.954c-6.05,0-10.954-4.904-10.954-10.954v-2.091   c0-6.05,4.904-10.954,10.954-10.954h58.091c6.05,0,10.954,4.904,10.954,10.954v2.091C151,169.16,146.096,174.064,140.046,174.064z"/>
	<path style="fill:#8B97A6;" d="M140.046,236.688H81.954c-6.05,0-10.954-4.904-10.954-10.954v-2.091   c0-6.05,4.904-10.954,10.954-10.954h58.091c6.05,0,10.954,4.904,10.954,10.954v2.091C151,231.784,146.096,236.688,140.046,236.688z   "/>
	<path style="fill:#8B97A6;" d="M140.046,299.312H81.954c-6.05,0-10.954-4.904-10.954-10.954v-2.091   c0-6.05,4.904-10.954,10.954-10.954h58.091c6.05,0,10.954,4.904,10.954,10.954v2.091C151,294.408,146.096,299.312,140.046,299.312z   "/>
	<path style="fill:#8B97A6;" d="M140.046,361.936H81.954c-6.05,0-10.954-4.904-10.954-10.954v-2.091   c0-6.05,4.904-10.954,10.954-10.954h58.091c6.05,0,10.954,4.904,10.954,10.954v2.091C151,357.031,146.096,361.936,140.046,361.936z   "/>
	<path style="fill:#8B97A6;" d="M140.046,424.56H81.954c-6.05,0-10.954-4.904-10.954-10.954v-2.091   c0-6.05,4.904-10.954,10.954-10.954h58.091c6.05,0,10.954,4.904,10.954,10.954v2.091C151,419.655,146.096,424.56,140.046,424.56z"/>
</g>
<g>
	<path style="fill:#67707A;" d="M141,87.44h-20c5.523,0,10,5.372,10,12s-4.477,12-10,12h20c5.523,0,10-5.372,10-12   S146.523,87.44,141,87.44z"/>
	<path style="fill:#67707A;" d="M141,150.064h-20c5.523,0,10,5.372,10,12s-4.477,12-10,12h20c5.523,0,10-5.372,10-12   C151,155.436,146.523,150.064,141,150.064z"/>
	<path style="fill:#67707A;" d="M141,212.688h-20c5.523,0,10,5.372,10,12s-4.477,12-10,12h20c5.523,0,10-5.372,10-12   S146.523,212.688,141,212.688z"/>
	<path style="fill:#67707A;" d="M141,275.312h-20c5.523,0,10,5.372,10,12s-4.477,12-10,12h20c5.523,0,10-5.372,10-12   S146.523,275.312,141,275.312z"/>
	<path style="fill:#67707A;" d="M141,337.936h-20c5.523,0,10,5.372,10,12s-4.477,12-10,12h20c5.523,0,10-5.372,10-12   S146.523,337.936,141,337.936z"/>
	<path style="fill:#67707A;" d="M141,400.56h-20c5.523,0,10,5.372,10,12c0,6.627-4.477,12-10,12h20c5.523,0,10-5.372,10-12   C151,405.933,146.523,400.56,141,400.56z"/>
</g>
<path d="M200.402,216.684v188.772c0,11.304,9.196,20.5,20.5,20.5c5.472,0,10.619-2.133,14.494-6.007  c3.873-3.874,6.006-9.021,6.006-14.493V216.685c18.019-7.592,28.22-25.32,28.22-49.538c0-16.688-4.881-35.201-13.058-49.523  c-9.563-16.751-22.229-25.977-35.662-25.977c-13.43,0-26.093,9.226-35.658,25.976c-8.179,14.324-13.062,32.838-13.062,49.524  C172.183,191.361,182.385,209.09,200.402,216.684z M220.902,106.646c16.387,0,33.72,31.098,33.72,60.5  c0,19.658-8.094,32.81-22.791,37.032c-3.214,0.923-5.429,3.863-5.429,7.208v194.069c0,1.466-0.573,2.847-1.613,3.887  c-1.041,1.04-2.421,1.613-3.887,1.613c-3.033,0-5.5-2.467-5.5-5.5V211.387c0-3.344-2.214-6.284-5.428-7.208  c-14.697-4.225-22.792-17.376-22.792-37.032C187.183,137.744,204.515,106.646,220.902,106.646z"/>
<path d="M307.888,215.232v190.224c0,11.304,9.196,20.5,20.5,20.5c5.472,0,10.619-2.133,14.483-5.996  c3.88-3.865,6.017-9.016,6.017-14.504v-24.203c0-4.143-3.358-7.5-7.5-7.5s-7.5,3.357-7.5,7.5v24.203  c0,1.471-0.569,2.847-1.613,3.887c-1.041,1.04-2.421,1.613-3.887,1.613c-3.033,0-5.5-2.468-5.5-5.5v-194.89  c0-3.031-1.825-5.765-4.625-6.927c-9.905-4.111-16.305-13.698-16.305-24.424v-78.17h7.181v49.967c0,4.143,3.358,7.5,7.5,7.5  s7.5-3.357,7.5-7.5v-49.967h8.5v49.967c0,4.143,3.358,7.5,7.5,7.5s7.5-3.357,7.5-7.5v-49.967h7.179v78.17  c0,7.058-2.75,13.694-7.744,18.688c-2.474,2.474-5.355,4.404-8.563,5.737c-2.799,1.162-4.623,3.896-4.623,6.926v136.933  c0,4.143,3.358,7.5,7.5,7.5s7.5-3.357,7.5-7.5V215.228c3.205-1.825,6.149-4.074,8.793-6.718  c7.827-7.826,12.137-18.229,12.137-29.294v-78.85c0-7.896-6.428-14.32-14.33-14.32h-15.31c-0.013,0-0.026-0.002-0.039-0.002  s-0.026,0.002-0.039,0.002h-23.423c-0.013,0-0.026-0.002-0.039-0.002s-0.026,0.002-0.039,0.002h-15.312  c-3.826,0-7.424,1.489-10.113,4.177c-2.719,2.699-4.217,6.301-4.217,10.144v78.85C286.958,194.291,295.026,207.931,307.888,215.232z  "/>
<path d="M441,56.5c-4.142,0-7.5,3.357-7.5,7.5v433h-325v-12.499c0-4.143-3.358-7.5-7.5-7.5s-7.5,3.357-7.5,7.5V504.5  c0,4.143,3.358,7.5,7.5,7.5h340c4.142,0,7.5-3.357,7.5-7.5V64C448.5,59.857,445.142,56.5,441,56.5z"/>
<path d="M441,0H101c-4.142,0-7.5,3.357-7.5,7.5v72.44H81.955c-10.176,0-18.455,8.278-18.455,18.454v2.091  c0,10.176,8.279,18.455,18.455,18.455H93.5v23.624H81.955c-10.176,0-18.455,8.278-18.455,18.454v2.091  c0,10.176,8.279,18.455,18.455,18.455H93.5v23.624H81.955c-10.176,0-18.455,8.278-18.455,18.454v2.091  c0,10.176,8.279,18.455,18.455,18.455H93.5v23.623H81.955c-10.176,0-18.455,8.279-18.455,18.455v2.091  c0,10.176,8.279,18.454,18.455,18.454H93.5v23.624H81.955c-10.176,0-18.455,8.279-18.455,18.455v2.091  c0,10.176,8.279,18.454,18.455,18.454H93.5v23.624H81.955c-10.176,0-18.455,8.279-18.455,18.455v2.091  c0,10.176,8.279,18.454,18.455,18.454H93.5v16.271c0,4.143,3.358,7.5,7.5,7.5s7.5-3.357,7.5-7.5v-16.27h10v47.44  c0,4.143,3.358,7.5,7.5,7.5h290c4.142,0,7.5-3.357,7.5-7.5v-447c0-4.143-3.358-7.5-7.5-7.5H126c-4.142,0-7.5,3.357-7.5,7.5v47.44  h-10V15h325v12.5c0,4.143,3.358,7.5,7.5,7.5s7.5-3.357,7.5-7.5v-20C448.5,3.357,445.142,0,441,0z M78.5,100.485v-2.091  c0-1.904,1.55-3.454,3.455-3.454h58.091c1.905,0,3.455,1.55,3.455,3.454v2.091c0,1.905-1.55,3.455-3.455,3.455H81.955  C80.05,103.94,78.5,102.391,78.5,100.485z M108.5,118.94h10v23.624h-10V118.94z M78.5,163.109v-2.091  c0-1.904,1.55-3.454,3.455-3.454h58.091c1.905,0,3.455,1.55,3.455,3.454v2.091c0,1.905-1.55,3.455-3.455,3.455h-13.949  c-0.033,0-0.064-0.005-0.097-0.005s-0.064,0.004-0.097,0.005h-24.807c-0.033,0-0.064-0.005-0.097-0.005s-0.064,0.004-0.097,0.005  H81.955C80.05,166.564,78.5,165.015,78.5,163.109z M108.5,181.564h10v23.624h-10V181.564z M78.5,225.733v-2.091  c0-1.904,1.55-3.454,3.455-3.454h19.007c0.013,0,0.026,0.002,0.039,0.002s0.026-0.002,0.039-0.002h24.923  c0.013,0,0.026,0.002,0.039,0.002s0.026-0.002,0.039-0.002h14.007c1.905,0,3.455,1.55,3.455,3.454v2.091  c0,1.905-1.55,3.455-3.455,3.455H81.955C80.05,229.188,78.5,227.639,78.5,225.733z M108.5,244.188h10v23.623h-10V244.188z   M78.5,288.357v-2.091c0-1.905,1.55-3.455,3.455-3.455h58.091c1.905,0,3.455,1.55,3.455,3.455v2.091c0,1.904-1.55,3.454-3.455,3.454  h-14.007c-0.013,0-0.026-0.002-0.039-0.002s-0.026,0.002-0.039,0.002h-24.923c-0.013,0-0.026-0.002-0.039-0.002  s-0.026,0.002-0.039,0.002H81.955C80.05,291.812,78.5,290.262,78.5,288.357z M108.5,306.812h10v23.624h-10V306.812z M78.5,350.981  v-2.091c0-1.905,1.55-3.455,3.455-3.455h18.949c0.033,0,0.064,0.005,0.097,0.005s0.064-0.004,0.097-0.005h24.807  c0.033,0,0.064,0.005,0.097,0.005s0.064-0.004,0.097-0.005h13.949c1.905,0,3.455,1.55,3.455,3.455v2.091  c0,1.904-1.55,3.454-3.455,3.454H81.955C80.05,354.436,78.5,352.886,78.5,350.981z M108.5,369.436h10v23.624h-10V369.436z   M78.5,413.605v-2.091c0-1.905,1.55-3.455,3.455-3.455h58.091c1.905,0,3.455,1.55,3.455,3.455v2.091c0,1.904-1.55,3.454-3.455,3.454  H81.955C80.05,417.06,78.5,415.51,78.5,413.605z M133.5,40h275v432h-275v-39.94h6.545c10.176,0,18.455-8.278,18.455-18.454v-2.091  c0-10.176-8.279-18.455-18.455-18.455H133.5v-23.624h6.545c10.176,0,18.455-8.278,18.455-18.454v-2.091  c0-10.176-8.279-18.455-18.455-18.455H133.5v-23.624h6.545c10.176,0,18.455-8.278,18.455-18.454v-2.091  c0-10.176-8.279-18.455-18.455-18.455H133.5v-23.623h6.545c10.176,0,18.455-8.279,18.455-18.455v-2.091  c0-10.176-8.279-18.454-18.455-18.454H133.5v-23.624h6.545c10.176,0,18.455-8.279,18.455-18.455v-2.091  c0-10.176-8.279-18.454-18.455-18.454H133.5V118.94h6.545c10.176,0,18.455-8.279,18.455-18.455v-2.091  c0-10.176-8.279-18.454-18.455-18.454H133.5V40z"/>
<g>
</g>
<g>
</g>
<g>
</g>
<g>
</g>
<g>
</g>
<g>
</g>
<g>
</g>
<g>
</g>
<g>
</g>
<g>
</g>
<g>
</g>
<g>
</g>
<g>
</g>
<g>
</g>
<g>
</g>
</svg>
