<?xml version="1.0" encoding="utf-8"?>
<!-- Generator: Adobe Illustrator 22.0.0, SVG Export Plug-In . SVG Version: 6.00 Build 0)  -->
<svg version="1.1" xmlns="http://www.w3.org/2000/svg" xmlns:xlink="http://www.w3.org/1999/xlink" x="0px" y="0px"
	 viewBox="0 0 512 512" style="enable-background:new 0 0 512 512;" xml:space="preserve">
<style type="text/css">
	.st0{fill:#EFEFEF;}
	.st1{fill:#EDEDED;}
	.st2{fill:#E1902B;}
	.st3{fill:#827382;}
	.st4{fill:#98CDE6;}
	.st5{clip-path:url(#SVGID_2_);fill:#43B06D;}
	.st6{clip-path:url(#SVGID_2_);fill:#4D917B;}
	.st7{fill:#FFDBC5;}
	.st8{fill:#E8B494;}
	.st9{fill:#DB4646;}
	.st10{fill:#E7AD84;}
	.st11{fill:#9EC853;}
	.st12{fill:#EBB290;}
	.st13{fill:#2961A5;}
	.st14{fill:#D49670;}
	.st15{fill:#4D917B;}
	.st16{fill:#78BEDE;}
	.st17{fill:#D4CDC1;}
	.st18{fill:#A18FA1;}
	.st19{fill:#3D2A3D;}
	.st20{fill:#FF826E;}
	.st21{fill:#E6A585;}
	.st22{fill:#142A7A;}
	.st23{fill:#FFD66C;}
	.st24{fill:#00D3D5;}
	.st25{fill:#B9EAF0;}
	.st26{fill:#EDB87B;}
	.st27{clip-path:url(#SVGID_4_);}
	.st28{fill:#D9904C;}
	.st29{fill:#F7B58D;}
	.st30{fill:#F7C8AB;}
	.st31{fill:#BABABA;}
	.st32{fill:#163A63;}
	.st33{fill:#F5BB47;}
	.st34{fill:#FFE999;}
	.st35{clip-path:url(#SVGID_6_);}
	.st36{fill:#B3B3B3;}
	.st37{fill:#F2C9B1;}
	.st38{clip-path:url(#SVGID_8_);}
	.st39{fill:#F2D7C4;}
	.st40{fill:#5D5660;}
	.st41{fill:#3B2D3F;}
	.st42{fill:#997999;}
	.st43{fill:#170F17;}
	.st44{clip-path:url(#SVGID_10_);}
</style>
<g id="Layer_6">
</g>
<g id="Layer_9">
</g>
<g id="Layer_7">
	<g>
		<g>
			<g>
				<g>
					<g>
						<path class="st7" d="M375.5,344.7c-3.2-6.1-10.7-8.5-16.8-5.3l-33.2,14.8c-6.1,3.2-8.5,10.7-5.3,16.8l0,0
							c3.2,6.1,10.7,8.5,16.8,5.3l33.2-14.8C376.3,358.3,378.7,350.7,375.5,344.7L375.5,344.7z"/>
					</g>
					<path class="st7" d="M215.4,303H156v60h59.4c12.2,0,23.6-8.3,23.6-18.4v-23.5C239,310.9,227.6,303,215.4,303z"/>
					<g>
						<path class="st7" d="M274.8,345.8c3.8-7.8,0.5-17.1-7.2-20.9l-39.2-20.6c-7.8-3.8-17.1-0.5-20.9,7.2l0,0
							c-3.8,7.8-0.5,17.1,7.2,20.9l39.2,20.6C261.7,356.8,271,353.6,274.8,345.8L274.8,345.8z"/>
					</g>
					<g>
						<path class="st7" d="M299.1,373c3.9-10.3-1.2-21.8-11.5-25.8l-52.3-21.8c-10.3-3.9-21.8,1.2-25.8,11.5l0,0
							c-3.9,10.3,1.2,21.8,11.5,25.8l52.3,21.8C283.6,388.4,295.2,383.3,299.1,373L299.1,373z"/>
					</g>
					<path class="st7" d="M332.8,352.3c1.3,8.1,3.2,16.1,5.2,24.1l-50.2,10.6c-9.2,2-18.3-3.9-20.1-12.6
						c-1.9-8.8,4.1-17.8,13.3-19.7L332.8,352.3z"/>
					<path class="st8" d="M284.5,333.2c0.1,10.5,7.9,19.1,17.5,19.3l15.3,0.4c-0.2,1.9-0.5,3.2-1.1,4.6c-3,7-10.6,10.3-16.9,7
						l-34.5-17.7c-4.1-2.1-6.7-6.3-7.2-10.9C266.5,335.5,275.5,334.7,284.5,333.2z"/>
					<path class="st7" d="M317.3,336.5c-0.3,7.7-6.8,13.8-14.5,13.5l-42.1-1.5c-7.7-0.3-13.8-6.8-13.5-14.5l0,0
						c0.3-7.7,6.8-13.8,14.5-13.5l42.1,1.5C311.5,322.3,317.6,328.8,317.3,336.5L317.3,336.5z"/>
				</g>
				<rect x="141" y="303" class="st8" width="42" height="60"/>
				<path class="st0" d="M111,384h37.4c11.5,0,20.6-9.2,20.6-20.6v-64.2c0-11.5-9.1-21.1-20.6-21.1H111V384z"/>
			</g>
			<g>
				<path class="st19" d="M216,173v91c0,18.2,14.3,33,32.5,33h104c18.2,0,33.5-14.8,33.5-33v-91H216z"/>
				<path class="st42" d="M375,262c0,2.8-2.2,5-5,5l0,0c-2.8,0-5-2.2-5-5v-60c0-2.8,2.2-5,5-5l0,0c2.8,0,5,2.2,5,5V262z"/>
				<rect x="215" y="177" class="st43" width="170" height="17"/>
				<path class="st19" d="M394,177c-8.1-23.3-46.8-41-93.5-41s-85.4,17.7-93.5,41H394z"/>
				<circle class="st19" cx="300.5" cy="132" r="15"/>
			</g>
		</g>
	</g>
</g>
</svg>
