<svg width="159" height="241" viewBox="0 0 159 241" fill="none" xmlns="http://www.w3.org/2000/svg">
<path d="M140.866 0.859375H18.1336C8.61009 0.859375 0.86113 8.54609 0.86113 17.9931V223.007C0.86113 232.454 8.61009 240.141 18.1336 240.141H140.867C150.39 240.141 158.139 232.454 158.139 223.007V17.9931C158.139 8.54609 150.39 0.859375 140.866 0.859375ZM18.1336 8.57812H140.867C146.1 8.57812 150.358 12.8011 150.358 17.9931V19.4573H108.106C106.814 19.4573 105.606 20.0926 104.884 21.1551L101.294 26.42H57.7102L54.1331 21.1589C53.4095 20.0941 52.201 19.4573 50.9074 19.4573H8.64238V17.9931C8.64238 12.8011 12.8995 8.57812 18.1336 8.57812ZM150.358 211.863H8.64238V27.1757H48.8384L52.4154 32.4372C53.1391 33.502 54.3475 34.1388 55.6411 34.1388H103.358C104.65 34.1388 105.858 33.5035 106.58 32.441L110.171 27.1757H150.357L150.358 211.863ZM140.866 232.422H18.1336C12.8999 232.422 8.64238 228.199 8.64238 223.007V219.581H150.358V223.007C150.358 228.199 146.1 232.422 140.866 232.422Z" fill="#74C69D"/>
<path d="M95.3703 53.7563C85.0963 53.7563 76.1179 59.9541 71.683 68.9345C68.0907 64.1377 62.5439 60.9888 56.287 60.9888C46.865 60.9888 38.9379 68.0133 37.1132 77.2781H30.4524C29.4094 77.2781 28.4122 77.6926 27.6808 78.4293C26.9493 79.1661 26.5466 80.163 26.5618 81.1957C26.796 96.375 34.2275 110.201 46.3585 119.301H45.6749C43.5265 119.301 41.7843 121.029 41.7843 123.161C41.7843 125.292 43.5265 127.02 45.6749 127.02H113.027C115.176 127.02 116.918 125.292 116.918 123.161C116.918 121.029 115.176 119.301 113.027 119.301H112.343C124.474 110.201 131.907 96.3762 132.142 81.1957C132.158 80.163 131.755 79.1661 131.024 78.4293C130.292 77.6926 129.295 77.2781 128.252 77.2781H121.662C119.683 64.0092 108.594 53.7563 95.3703 53.7563ZM56.2874 68.7076C61.4432 68.7076 65.8676 72.3068 67.4538 77.2781H45.1073C46.6958 72.3068 51.1257 68.7076 56.2874 68.7076ZM96.474 119.302H62.2295C46.8304 113.396 36.344 100.242 34.5963 84.9968H124.107C122.36 100.244 111.873 113.396 96.474 119.302ZM76.9411 77.2781C78.7876 68.2742 86.3942 61.4751 95.3703 61.4751C104.346 61.4751 111.953 68.2742 113.797 77.2781H76.9411Z" fill="#74C69D"/>
<path d="M30.398 147.74H92.99C95.1384 147.74 96.8806 146.012 96.8806 143.88C96.8806 141.749 95.1384 140.021 92.99 140.021H30.398C28.2496 140.021 26.5074 141.749 26.5074 143.88C26.5074 146.012 28.2492 147.74 30.398 147.74Z" fill="#74C69D"/>
<path d="M30.4532 168.951H93.0565C95.2049 168.951 96.9471 167.223 96.9471 165.092C96.9471 162.961 95.2049 161.233 93.0565 161.233H30.4532C28.3048 161.233 26.5626 162.961 26.5626 165.092C26.5626 167.223 28.3044 168.951 30.4532 168.951Z" fill="#74C69D"/>
<path d="M93.1094 182.446H30.5061C28.3577 182.446 26.6155 184.174 26.6155 186.305C26.6155 188.437 28.3577 190.165 30.5061 190.165H93.1094C95.2578 190.165 97 188.437 97 186.305C97 184.174 95.2582 182.446 93.1094 182.446Z" fill="#74C69D"/>
<path d="M128.253 140.021H113.727C111.579 140.021 109.837 141.749 109.837 143.88C109.837 146.012 111.579 147.74 113.727 147.74H128.253C130.401 147.74 132.143 146.012 132.143 143.88C132.143 141.749 130.401 140.021 128.253 140.021Z" fill="#74C69D"/>
<path d="M128.239 161.233H113.714C111.565 161.233 109.823 162.961 109.823 165.092C109.823 167.223 111.565 168.951 113.714 168.951H128.239C130.387 168.951 132.13 167.223 132.13 165.092C132.13 162.961 130.388 161.233 128.239 161.233Z" fill="#74C69D"/>
<path d="M128.226 182.446H113.701C111.552 182.446 109.81 184.174 109.81 186.305C109.81 188.437 111.552 190.165 113.701 190.165H128.226C130.374 190.165 132.116 188.437 132.116 186.305C132.116 184.174 130.375 182.446 128.226 182.446Z" fill="#74C69D"/>
</svg>
