<?xml version="1.0" encoding="iso-8859-1"?>
<!-- Generator: Adobe Illustrator 21.0.2, SVG Export Plug-In . SVG Version: 6.00 Build 0)  -->
<svg version="1.1" xmlns="http://www.w3.org/2000/svg" xmlns:xlink="http://www.w3.org/1999/xlink" x="0px" y="0px"
	 viewBox="0 0 64 64" style="enable-background:new 0 0 64 64;" xml:space="preserve">
<g id="_x32_5_vegetables">
</g>
<g id="_x32_4_cupcake">
</g>
<g id="_x32_3_chef">
</g>
<g id="_x32_2_grinder">
</g>
<g id="_x32_1_kettle">
</g>
<g id="_x32_0_pouring_water">
</g>
<g id="_x31_9_rolling_pin">
</g>
<g id="_x31_8_mixing">
</g>
<g id="_x31_7_apron">
</g>
<g id="_x31_6_lemon_squeezer">
</g>
<g id="_x31_5_hot_pot">
</g>
<g id="_x31_4_blender">
</g>
<g id="_x31_3_oven">
</g>
<g id="_x31_2_online_recipe">
	<g>
		<path d="M47.7729,1H16.2271c-2.4478,0-4.4395,1.9917-4.4395,4.4395v53.1211c0,2.4478,1.9917,4.4395,4.4395,4.4395h31.5459
			c2.4478,0,4.4395-1.9917,4.4395-4.4395V5.4395C52.2124,2.9917,50.2207,1,47.7729,1z M16.2271,3h31.5459
			c1.3452,0,2.4395,1.0942,2.4395,2.4395v0.3794H39.3525c-0.332,0-0.6426,0.1646-0.8281,0.4399L37.6016,7.623H26.3994L25.48,6.2598
			c-0.186-0.2759-0.4966-0.4409-0.8291-0.4409H13.7876V5.4395C13.7876,4.0942,14.8818,3,16.2271,3z M50.2124,55.6729H13.7876V7.8188
			h10.3315l0.9194,1.3633c0.186,0.2759,0.4966,0.4409,0.8291,0.4409h12.2646c0.332,0,0.6426-0.1646,0.8281-0.4399l0.9229-1.3643
			h10.3291V55.6729z M47.7729,61H16.2271c-1.3452,0-2.4395-1.0942-2.4395-2.4395v-0.8877h36.4248v0.8877
			C50.2124,59.9058,49.1182,61,47.7729,61z"/>
		<path d="M36.0791,14.7061c-2.6407,0-4.9484,1.6059-6.0883,3.9328c-0.9233-1.2429-2.349-2.0588-3.9572-2.0588
			c-2.4217,0-4.4592,1.8201-4.9282,4.2207h-1.712c-0.2681,0-0.5244,0.1074-0.7124,0.2983s-0.2915,0.4492-0.2876,0.7168
			c0.0602,3.9331,1.9703,7.5155,5.0883,9.8735h-0.1757c-0.5522,0-1,0.4478-1,1s0.4478,1,1,1h17.3115c0.5522,0,1-0.4478,1-1
			s-0.4478-1-1-1h-0.1758c3.1179-2.358,5.0283-5.9401,5.0889-9.8735c0.0039-0.2676-0.0996-0.5259-0.2876-0.7168
			s-0.4443-0.2983-0.7124-0.2983h-1.6938C42.3281,17.3627,39.478,14.7061,36.0791,14.7061z M26.0337,18.5801
			c1.3252,0,2.4624,0.9326,2.8701,2.2207h-5.7437C23.5684,19.5127,24.707,18.5801,26.0337,18.5801z M36.3628,31.6895H27.561
			c-3.958-1.5303-6.6533-4.9385-7.1025-8.8887h23.0068C43.0161,26.7515,40.3208,30.1592,36.3628,31.6895z M31.3423,20.8008
			c0.4746-2.333,2.4297-4.0947,4.7368-4.0947s4.2622,1.7617,4.7363,4.0947H31.3423z"/>
		<path d="M19.3794,39.0581h16.0879c0.5522,0,1-0.4478,1-1s-0.4478-1-1-1H19.3794c-0.5522,0-1,0.4478-1,1
			S18.8271,39.0581,19.3794,39.0581z"/>
		<path d="M19.3936,44.5542h16.0908c0.5522,0,1-0.4478,1-1s-0.4478-1-1-1H19.3936c-0.5522,0-1,0.4478-1,1
			S18.8413,44.5542,19.3936,44.5542z"/>
		<path d="M35.498,48.0508H19.4072c-0.5522,0-1,0.4478-1,1s0.4478,1,1,1H35.498c0.5522,0,1-0.4478,1-1
			S36.0503,48.0508,35.498,48.0508z"/>
		<path d="M44.5308,37.0581h-3.7334c-0.5522,0-1,0.4478-1,1s0.4478,1,1,1h3.7334c0.5522,0,1-0.4478,1-1
			S45.083,37.0581,44.5308,37.0581z"/>
		<path d="M44.5273,42.5542h-3.7334c-0.5522,0-1,0.4478-1,1s0.4478,1,1,1h3.7334c0.5522,0,1-0.4478,1-1
			S45.0796,42.5542,44.5273,42.5542z"/>
		<path d="M44.5239,48.0508h-3.7334c-0.5522,0-1,0.4478-1,1s0.4478,1,1,1h3.7334c0.5522,0,1-0.4478,1-1
			S45.0762,48.0508,44.5239,48.0508z"/>
	</g>
</g>
<g id="_x31_1_noodle">
</g>
<g id="_x31_0_grilling_meat">
</g>
<g id="_x30_9_chicken">
</g>
<g id="_x30_8_scale">
</g>
<g id="_x30_7_mixer">
</g>
<g id="_x30_6_rice">
</g>
<g id="_x30_5_cutting_board">
</g>
<g id="_x30_4_toast">
</g>
<g id="_x30_3_pour_seasoning">
</g>
<g id="_x30_2_pot">
</g>
<g id="_x30_1_food_serving">
</g>
</svg>
